<svg width="180" height="53" viewBox="0 0 180 53" fill="none" xmlns="http://www.w3.org/2000/svg">
<g filter="url(#filter0_d_402_150)">
<path d="M152.704 35.4826C153.794 36.3265 154.831 36.9415 155.817 37.324C156.806 37.7084 157.825 37.8997 158.878 37.8997C159.752 37.8997 160.449 37.7459 160.972 37.4403C161.492 37.1328 161.752 36.7277 161.752 36.2252C161.752 35.5426 160.699 34.8057 158.595 34.0125C158.392 33.9356 158.233 33.8756 158.116 33.8344C156.069 33.0656 154.668 32.3287 153.911 31.6217C153.154 30.9129 152.777 30.0523 152.777 29.0378C152.777 27.189 153.643 25.6757 155.375 24.4981C157.107 23.3224 159.339 22.7336 162.07 22.7336C163.513 22.7336 164.9 22.9174 166.229 23.283C167.56 23.6506 168.817 24.1925 170 24.9069L167.019 28.6028C166.086 28.0234 165.233 27.5921 164.465 27.3108C163.695 27.0295 162.988 26.8889 162.338 26.8889C161.628 26.8889 161.037 27.0371 160.564 27.3315C160.091 27.6258 159.854 27.9859 159.854 28.4115C159.854 28.9403 160.741 29.5329 162.515 30.1892C163.141 30.4198 163.625 30.6073 163.968 30.7517C165.789 31.4755 167.056 32.2162 167.763 32.97C168.473 33.7257 168.827 34.6688 168.827 35.8033C168.827 37.8059 167.865 39.4073 165.937 40.6036C164.01 41.8019 161.391 42.4019 158.08 42.4019C156.34 42.4019 154.714 42.1356 153.203 41.6012C151.689 41.0687 150.321 40.2792 149.104 39.2292L152.704 35.4826ZM82.8844 41.9275L86.9994 23.2062H94.0762L89.9616 41.9275H82.8844ZM134.794 37.7591H142.828L141.926 41.9275H126.955L131.051 23.2062H146.022L145.081 27.5283H137.046L136.391 30.5848H143.84L142.971 34.652H135.486L134.794 37.7591ZM62.9158 41.9275L66.0731 27.5546H60.2553L61.2486 23.2062H79.5888L78.5955 27.5546H73.0438L69.8865 41.9275H62.9158ZM106.171 41.9275H99.2703L103.367 23.2062H110.285C112.366 23.2062 113.916 23.2606 114.933 23.3674C115.95 23.4743 116.829 23.6543 117.576 23.9112C118.887 24.3537 119.88 24.9782 120.554 25.7845C121.227 26.5889 121.565 27.5546 121.565 28.6797C121.565 30.2323 120.926 31.5299 119.641 32.5743C118.359 33.6188 116.593 34.2732 114.348 34.5376L120.66 41.9275H112.751L107.731 34.7795L106.171 41.9275ZM108.387 31.7624H110.569C111.939 31.7624 112.993 31.5355 113.726 31.0836C114.46 30.6317 114.826 29.9792 114.826 29.1278C114.826 28.3272 114.483 27.744 113.797 27.3821C113.11 27.0202 112.012 26.8383 110.499 26.8383H109.469L108.387 31.7624ZM104.467 13.2004C105.554 14.0442 106.592 14.6574 107.58 15.0418C108.569 15.4262 109.588 15.6175 110.639 15.6175C111.515 15.6175 112.213 15.4638 112.733 15.1581C113.253 14.8506 113.513 14.4456 113.513 13.943C113.513 13.2605 112.46 12.5235 110.355 11.7304C110.155 11.6535 109.997 11.5935 109.877 11.5504C107.83 10.7834 106.431 10.0465 105.674 9.33957C104.917 8.63077 104.537 7.77008 104.537 6.75563C104.537 4.90488 105.403 3.39353 107.136 2.21594C108.868 1.04024 111.102 0.451416 113.833 0.451416C115.274 0.451416 116.66 0.635212 117.992 1.00086C119.321 1.36839 120.577 1.90841 121.761 2.62471L118.78 6.32059C117.846 5.74117 116.996 5.30991 116.226 5.02864C115.458 4.74737 114.748 4.60674 114.098 4.60674C113.388 4.60674 112.798 4.75485 112.324 5.04924C111.851 5.34176 111.614 5.70367 111.614 6.12932C111.614 6.65811 112.501 7.25065 114.275 7.90694C114.902 8.13758 115.388 8.3251 115.732 8.46948C117.552 9.19328 118.816 9.93398 119.526 10.6878C120.236 11.4416 120.59 12.3867 120.59 13.5211C120.59 15.5238 119.628 17.1251 117.698 18.3214C115.771 19.5196 113.151 20.1178 109.84 20.1178C108.103 20.1178 106.477 19.8516 104.964 19.319C103.45 18.7865 102.085 17.9952 100.867 16.947L104.467 13.2004ZM74.6046 9.90211C76.2601 10.1234 77.5224 10.5978 78.3916 11.3272C79.2606 12.0566 79.6952 12.9961 79.6952 14.1474C79.6952 15.1018 79.4026 15.985 78.8171 16.7932C78.2319 17.6033 77.4248 18.2389 76.3962 18.7002C75.6393 19.0396 74.6905 19.2834 73.5492 19.4278C72.4081 19.5722 70.5074 19.6453 67.8466 19.6453H59.2797L63.4126 0.923953H69.3011C71.5597 0.923953 73.1739 0.963353 74.1435 1.04023C75.1131 1.11711 75.923 1.25211 76.5735 1.449C77.6495 1.75652 78.5039 2.26283 79.1365 2.96975C79.769 3.67855 80.0853 4.4792 80.0853 5.37551C80.0853 6.61123 79.5976 7.63131 78.622 8.43762C77.6467 9.24205 76.3075 9.73147 74.6046 9.90211ZM85.7577 19.6453L89.8731 0.923953H96.9503L92.8356 19.6453H85.7577ZM126.741 19.6453L130.856 0.923953H137.933L133.818 19.6453H126.741ZM66.8357 15.9756H67.6692C69.7742 15.9756 71.1724 15.7919 71.8643 15.4262C72.5559 15.0587 72.9018 14.4155 72.9018 13.4948C72.9018 12.8123 72.6063 12.3266 72.0149 12.036C71.4237 11.7472 70.4247 11.6029 69.0173 11.6029H67.7759L66.8357 15.9756ZM68.5385 8.17512H69.1239C70.7911 8.17512 71.941 8.01572 72.5738 7.69507C73.2064 7.3763 73.5226 6.83624 73.5226 6.07869C73.5226 5.53303 73.2654 5.13364 72.7512 4.88238C72.2367 4.63111 71.412 4.50547 70.2767 4.50547H69.3011L68.5385 8.17512Z" fill="url(#paint0_linear_402_150)"/>
<path fill-rule="evenodd" clip-rule="evenodd" d="M22.6593 0.509613L22.6939 0.804021C22.7636 1.39844 23.3548 1.8916 24.159 2.02849C28.0927 2.69978 31.9774 3.49486 35.5875 4.67056C39.7974 6.04504 43.628 7.7664 47.6155 9.68279C48.1758 9.95281 48.8775 9.98465 49.4681 9.79151C50.7821 13.1311 51.5489 17.1495 51.5489 21.4717C51.5489 33.0413 46.0563 42.4338 39.2912 42.4338H12.2577C5.49265 42.4338 0 33.0413 0 21.4717C0 9.90215 5.49265 0.509613 12.2577 0.509613H22.6593ZM6.64693 29.7673C6.64693 30.0167 6.78374 30.2548 7.02771 30.4311C7.27167 30.6055 7.60252 30.7049 7.9474 30.7049C9.2385 30.7049 11.2066 30.7049 12.4977 30.7049C12.8426 30.7049 13.1735 30.8042 13.4172 30.9786C13.6611 31.1549 13.7982 31.393 13.7982 31.6424C13.7982 31.9237 13.7982 32.2331 13.7982 32.5144C13.7982 32.7619 13.6611 33.0019 13.4172 33.1763C13.1735 33.3525 12.8426 33.452 12.4977 33.452C12.383 33.452 12.267 33.452 12.1526 33.452C11.8077 33.452 11.4769 33.5495 11.2329 33.7257C10.9889 33.902 10.8521 34.1401 10.8521 34.3895C10.8521 34.6708 10.8521 34.9783 10.8521 35.2596C10.8521 35.509 10.9889 35.7471 11.2329 35.9234C11.4769 36.0996 11.8077 36.1971 12.1526 36.1971C13.111 36.1971 14.4092 36.1971 15.3676 36.1971C15.7125 36.1971 16.0433 36.2965 16.287 36.4728C16.531 36.649 16.6681 36.8872 16.6681 37.1347C16.6681 37.416 16.6681 37.7253 16.6681 38.0066C16.6681 38.256 16.8051 38.4942 17.0488 38.6704C17.2928 38.8448 17.6236 38.9442 17.9685 38.9442C20.0836 38.9442 24.2446 38.9442 26.3597 38.9442C26.7045 38.9442 27.0354 38.8448 27.2793 38.6704C27.5233 38.4942 27.6601 38.256 27.6601 38.0066C27.6601 37.7253 27.6601 37.416 27.6601 37.1347C27.6601 36.8872 27.5233 36.649 27.2793 36.4728C27.0354 36.2965 26.7045 36.1971 26.3597 36.1971C25.0686 36.1971 23.1004 36.1971 21.8093 36.1971C21.4644 36.1971 21.1336 36.0996 20.8899 35.9234C20.6459 35.7471 20.5089 35.509 20.5089 35.2596C20.5089 34.9783 20.5089 34.6708 20.5089 34.3895C20.5089 34.1401 20.6459 33.902 20.8899 33.7257C21.1336 33.5495 21.4644 33.452 21.8093 33.452H23.4136C23.7585 33.452 24.0893 33.3525 24.3333 33.1763C24.5772 33.0019 24.714 32.7619 24.714 32.5144V31.6424C24.714 31.1249 24.132 30.7049 23.4136 30.7049H18.9395C18.2213 30.7049 17.639 30.2848 17.639 29.7673C17.639 29.486 17.639 29.1766 17.639 28.8954C17.639 28.3778 18.2213 27.9578 18.9395 27.9578C19.822 27.9578 20.9838 27.9578 21.866 27.9578C22.5844 27.9578 23.1665 27.5378 23.1665 27.0202C23.1665 26.739 23.1665 26.4314 23.1665 26.1502C23.1665 25.9008 23.0297 25.6627 22.7857 25.4864C22.5417 25.3101 22.2109 25.2126 21.866 25.2126C20.9076 25.2126 19.6095 25.2126 18.651 25.2126C18.3061 25.2126 17.9753 25.1132 17.7316 24.937C17.4876 24.7607 17.3506 24.5225 17.3506 24.275C17.3506 23.9938 17.3506 23.6844 17.3506 23.4031C17.3506 23.1537 17.4876 22.9156 17.7316 22.7393C17.9753 22.563 18.3061 22.4655 18.651 22.4655C19.764 22.4655 21.3583 22.4655 22.4713 22.4655C22.8161 22.4655 23.147 22.3662 23.3907 22.1899C23.6347 22.0155 23.7717 21.7755 23.7717 21.528C23.7717 21.2467 23.7717 20.9373 23.7717 20.6561C23.7717 20.4067 23.6347 20.1685 23.3907 19.9941C23.147 19.8179 22.8161 19.7185 22.4713 19.7185C21.5128 19.7185 20.2147 19.7185 19.2562 19.7185C18.9111 19.7185 18.5805 19.6191 18.3366 19.4447C18.0926 19.2684 17.9558 19.0303 17.9558 18.7809C17.9558 18.4997 17.9558 18.1902 17.9558 17.909C17.9558 17.6614 18.0926 17.4233 18.3366 17.247C18.5805 17.0708 18.9111 16.9714 19.2562 16.9714C20.539 16.9714 22.4889 16.9714 23.7717 16.9714C24.1166 16.9714 24.4475 16.8739 24.6912 16.6976C24.9351 16.5214 25.0722 16.2832 25.0722 16.0338C25.0722 15.7526 25.0722 15.4451 25.0722 15.1638C25.0722 14.9144 24.9351 14.6763 24.6912 14.5C24.4475 14.3237 24.1166 14.2262 23.7717 14.2262C22.8133 14.2262 21.5152 14.2262 20.5567 14.2262C20.2116 14.2262 19.881 14.1268 19.637 13.9506C19.3931 13.7743 19.2562 13.5362 19.2562 13.2887C19.2562 13.0074 19.2562 12.698 19.2562 12.4167C19.2562 12.1673 19.3931 11.9292 19.637 11.7529C19.881 11.5785 20.2116 11.4791 20.5567 11.4791C21.9617 11.4791 24.1874 11.4791 25.5924 11.4791C25.9373 11.4791 26.2681 11.3798 26.5118 11.2035C26.7558 11.0291 26.8928 10.7891 26.8928 10.5416C26.8928 10.2603 26.8928 9.95092 26.8928 9.66965C26.8928 9.42213 26.7558 9.18211 26.5118 9.00772C26.2681 8.83146 25.9373 8.73208 25.5924 8.73208C24.6339 8.73208 23.3358 8.73208 22.3774 8.73208C22.0322 8.73208 21.7017 8.63271 21.4577 8.45832C21.2137 8.28206 21.0769 8.04391 21.0769 7.79452C21.0769 7.51325 21.0769 7.20574 21.0769 6.9226C21.0769 6.40506 20.4945 5.98503 19.7764 5.98503C17.9295 5.98503 14.567 5.98503 12.7204 5.98503C12.002 5.98503 11.4199 6.40506 11.4199 6.9226C11.4199 7.20574 11.4199 7.51325 11.4199 7.79452C11.4199 8.04391 11.557 8.28206 11.8007 8.45832C12.0446 8.63271 12.3755 8.73208 12.7204 8.73208C13.6788 8.73208 14.9769 8.73208 15.9354 8.73208C16.2803 8.73208 16.6111 8.83146 16.8551 9.00772C17.0988 9.18211 17.2359 9.42213 17.2359 9.66965C17.2359 9.95092 17.2359 10.2603 17.2359 10.5416C17.2359 10.7891 17.0988 11.0291 16.8551 11.2035C16.6111 11.3798 16.2803 11.4791 15.9354 11.4791C13.8383 11.4791 9.73294 11.4791 7.63555 11.4791C7.29067 11.4791 6.96008 11.5785 6.71612 11.7529C6.47215 11.9292 6.33509 12.1673 6.33509 12.4167C6.33509 12.698 6.33509 13.0074 6.33509 13.2887C6.33509 13.5362 6.47215 13.7743 6.71612 13.9506C6.96008 14.1268 7.29067 14.2262 7.63555 14.2262C9.36101 14.2262 12.3893 14.2262 14.1147 14.2262C14.4596 14.2262 14.7904 14.3237 15.0344 14.5C15.2781 14.6763 15.4152 14.9144 15.4152 15.1638C15.4152 15.4451 15.4152 15.7526 15.4152 16.0338C15.4152 16.2832 15.2781 16.5214 15.0344 16.6976C14.7904 16.8739 14.4596 16.9714 14.1147 16.9714C12.1505 16.9714 8.44782 16.9714 6.4836 16.9714C6.13871 16.9714 5.80787 17.0708 5.5639 17.247C5.3202 17.4233 5.18313 17.6614 5.18313 17.909C5.18313 18.1902 5.18313 18.4997 5.18313 18.7809C5.18313 19.2985 5.76522 19.7185 6.4836 19.7185C8.17706 19.7185 11.1208 19.7185 12.8143 19.7185C13.5326 19.7185 14.1147 20.1385 14.1147 20.6561C14.1147 20.9373 14.1147 21.2467 14.1147 21.528C14.1147 21.7755 13.9777 22.0155 13.7339 22.1899C13.49 22.3662 13.1592 22.4655 12.8143 22.4655C10.9616 22.4655 7.58276 22.4655 5.73011 22.4655C5.38523 22.4655 5.05439 22.563 4.81042 22.7393C4.56671 22.9156 4.42965 23.1537 4.42965 23.4031C4.42965 23.6844 4.42965 23.9938 4.42965 24.275C4.42965 24.5225 4.56671 24.7607 4.81042 24.937C5.05439 25.1132 5.38523 25.2126 5.73011 25.2126C7.45557 25.2126 10.4838 25.2126 12.2093 25.2126C12.5542 25.2126 12.885 25.3101 13.1287 25.4864C13.3727 25.6627 13.5097 25.9008 13.5097 26.1502C13.5097 26.4314 13.5097 26.739 13.5097 27.0202C13.5097 27.2696 13.3727 27.5078 13.1287 27.684C12.885 27.8603 12.5542 27.9578 12.2093 27.9578C10.9874 27.9578 9.16906 27.9578 7.9474 27.9578C7.60252 27.9578 7.27167 28.0572 7.02771 28.2334C6.78374 28.4078 6.64693 28.6479 6.64693 28.8954C6.64693 29.1766 6.64693 29.486 6.64693 29.7673ZM39.2912 7.40447C43.8314 7.40447 47.5175 13.7087 47.5175 21.4717C47.5175 29.2366 43.8314 35.5408 39.2912 35.5408C34.751 35.5408 31.065 29.2366 31.065 21.4717C31.065 13.7087 34.751 7.40447 39.2912 7.40447ZM39.2912 10.1516C42.945 10.1516 45.9114 15.2238 45.9114 21.4717C45.9114 27.7197 42.945 32.7938 39.2912 32.7938C35.6374 32.7938 32.6711 27.7197 32.6711 21.4717C32.6711 15.2238 35.6374 10.1516 39.2912 10.1516Z" fill="white"/>
</g>
<defs>
<filter id="filter0_d_402_150" x="0" y="0.451416" width="180" height="51.9824" filterUnits="userSpaceOnUse" color-interpolation-filters="sRGB">
<feFlood flood-opacity="0" result="BackgroundImageFix"/>
<feColorMatrix in="SourceAlpha" type="matrix" values="0 0 0 0 0 0 0 0 0 0 0 0 0 0 0 0 0 0 127 0" result="hardAlpha"/>
<feOffset dx="5" dy="5"/>
<feGaussianBlur stdDeviation="2.5"/>
<feComposite in2="hardAlpha" operator="out"/>
<feColorMatrix type="matrix" values="0 0 0 0 0.5375 0 0 0 0 0.5375 0 0 0 0 0.5375 0 0 0 0.25 0"/>
<feBlend mode="normal" in2="BackgroundImageFix" result="effect1_dropShadow_402_150"/>
<feBlend mode="normal" in="SourceGraphic" in2="effect1_dropShadow_402_150" result="shape"/>
</filter>
<linearGradient id="paint0_linear_402_150" x1="73.5345" y1="5.12567" x2="99.7808" y2="50.9184" gradientUnits="userSpaceOnUse">
<stop stop-color="white"/>
<stop offset="1" stop-color="#B0B0B0"/>
</linearGradient>
</defs>
</svg>
