<svg width="54" height="46" viewBox="0 0 54 46" fill="none" xmlns="http://www.w3.org/2000/svg">
<path d="M21.5 43C22.8807 43 24 42.0816 24 40.9487C24 39.8158 22.8807 38.8974 21.5 38.8974C20.1193 38.8974 19 39.8158 19 40.9487C19 42.0816 20.1193 43 21.5 43Z" stroke="#F9F9F9" stroke-width="5.00529" stroke-linecap="round" stroke-linejoin="round"/>
<path d="M44.5 43C45.8807 43 47 42.0816 47 40.9487C47 39.8158 45.8807 38.8974 44.5 38.8974C43.1193 38.8974 42 39.8158 42 40.9487C42 42.0816 43.1193 43 44.5 43Z" stroke="#F9F9F9" stroke-width="5.00529" stroke-linecap="round" stroke-linejoin="round"/>
<path d="M3 3H11.7273L17.5745 29.5505C17.7741 30.4634 18.3205 31.2834 19.1183 31.867C19.916 32.4507 20.9143 32.7607 21.9382 32.7429H43.1455C44.1694 32.7607 45.1676 32.4507 45.9654 31.867C46.7631 31.2834 47.3096 30.4634 47.5091 29.5505L51 12.9143H13.9091" stroke="#F9F9F9" stroke-width="5.00529" stroke-linecap="round" stroke-linejoin="round"/>
</svg>
