<svg width="45" height="40" viewBox="0 0 45 40" fill="none" xmlns="http://www.w3.org/2000/svg">
<g clip-path="url(#clip0_402_137)">
<path d="M31.8624 0C35.2995 0 38.1867 1.15646 40.524 3.46939C42.8613 5.78231 44.0299 8.60544 44.0299 11.9388C44.0299 13.5714 43.6862 15.2211 42.9987 16.8878C42.3113 18.5544 41.5551 20.034 40.7302 21.3265C39.9053 22.6191 38.5133 24.2857 36.5541 26.3265C34.5949 28.3674 32.9451 30.017 31.6046 31.2755C30.2641 32.534 28.1159 34.4558 25.1599 37.0408L21.9634 39.898L18.7668 37.1429C15.8796 34.4898 13.7486 32.534 12.3737 31.2755C10.9989 30.017 9.33186 28.3674 7.37269 26.3265C5.41351 24.2857 4.02146 22.6191 3.19655 21.3265C2.37163 20.034 1.63265 18.5544 0.979588 16.8878C0.326529 15.2211 0 13.5714 0 11.9388C0 8.60544 1.16863 5.78231 3.50589 3.46939C5.84315 1.15646 8.69599 0 12.0644 0C16.0515 0 19.3512 1.53061 21.9634 4.59184C24.5756 1.53061 27.8753 0 31.8624 0ZM22.1696 33.8776C25.538 30.8844 27.9956 28.6565 29.5423 27.1939C31.089 25.7313 32.7904 23.9796 34.6465 21.9388C36.5025 19.898 37.7915 18.1122 38.5133 16.5816C39.2351 15.051 39.596 13.5034 39.596 11.9388C39.596 9.76191 38.857 7.95919 37.379 6.53061C35.901 5.10204 34.0622 4.38776 31.8624 4.38776C30.2125 4.38776 28.6486 4.86395 27.1707 5.81633C25.6927 6.76871 24.6444 7.9932 24.0257 9.4898H19.9011C19.3512 7.9932 18.3372 6.76871 16.8592 5.81633C15.3812 4.86395 13.783 4.38776 12.0644 4.38776C9.86462 4.38776 8.04293 5.10204 6.59933 6.53061C5.15572 7.95919 4.43392 9.76191 4.43392 11.9388C4.43392 13.5034 4.77764 15.051 5.46507 16.5816C6.1525 18.1122 7.44143 19.898 9.33186 21.9388C11.2223 23.9796 12.9409 25.7313 14.4876 27.1939C16.0343 28.6565 18.4575 30.8844 21.7572 33.8776L21.9634 34.0816L22.1696 33.8776Z" fill="#F9F9F9"/>
</g>
<defs>
<clipPath id="clip0_402_137">
<rect width="44.5455" height="40" fill="white"/>
</clipPath>
</defs>
</svg>
