<svg width="40" height="40" viewBox="0 0 40 40" fill="none" xmlns="http://www.w3.org/2000/svg">
<path fill-rule="evenodd" clip-rule="evenodd" d="M0 19.5376C0 8.94628 9.158 0 20 0C30.842 0 40 8.94628 40 19.5376C40 25.7701 36.816 31.4126 32 35.0192V35.1677H31.796C28.46 37.6002 24.374 39.0752 20 39.0752C15.626 39.0752 11.54 37.6002 8.204 35.1677H8V35.0192C3.184 31.4126 0 25.7682 0 19.5376ZM14.2469 29.7675C13.1831 30.6036 12.4427 31.7689 12.148 33.0713C14.484 34.394 17.168 35.1677 20 35.1677C22.832 35.1677 25.516 34.394 27.852 33.0713C27.5569 31.7691 26.8165 30.604 25.7527 29.7679C24.6889 28.9319 23.3653 28.4749 22 28.4722H18C16.6346 28.4745 15.3108 28.9314 14.2469 29.7675ZM27.5355 26.2033C29.1755 27.2695 30.4571 28.7845 31.22 30.5588C34.154 27.7083 36 23.789 36 19.5376C36 11.0642 28.674 3.90752 20 3.90752C11.326 3.90752 4 11.0642 4 19.5376C4 23.789 5.846 27.7083 8.78 30.5588C9.54289 28.7845 10.8245 27.2695 12.4645 26.2033C13.2726 25.6779 14.1499 25.2731 15.0677 24.9972C13.1774 23.5939 12 21.3622 12 18.7561C12 14.3015 15.44 10.9411 20 10.9411C24.56 10.9411 28 14.3015 28 18.7561C28 21.3622 26.8226 23.5939 24.9323 24.9972C25.8501 25.2731 26.7274 25.6779 27.5355 26.2033ZM16 18.7561C16 21.0576 17.644 22.6636 20 22.6636C22.356 22.6636 24 21.0576 24 18.7561C24 16.4546 22.356 14.8486 20 14.8486C17.644 14.8486 16 16.4546 16 18.7561Z" fill="#F9F9F9"/>
</svg>
