<svg width="50" height="50" viewBox="0 0 50 50" fill="none" xmlns="http://www.w3.org/2000/svg">
<path d="M49.9416 16.9587L49.4658 17.2592L49.0735 17.5012L45.6852 19.6378L44.7504 20.222L33.3333 27.3827L32.7073 27.775L29.3857 29.8615L29.2104 29.9698L29.0269 30.0868L28.7598 30.2537L26.231 31.8394L25.9974 31.998L25.9723 32.0064L25.9473 32.0231L25.0042 32.6156L24.9708 32.6322L24.1946 32.1483L24.0527 32.0564L24.0277 32.0397L22.9511 31.3637L21.1817 30.2537L20.9814 30.1285L20.5559 29.8615L17.2342 27.775L16.6082 27.3827L6.50977 21.0399L5.31631 20.2971L4.36484 19.6962L0.0583984 16.9921L0 16.9587L0.0583984 16.9254L0.100195 16.9003L4.36484 14.2214L5.31631 13.6204L11.3921 9.80637L12.0097 9.41418L15.3313 7.32766L15.9489 6.94377L24.3699 1.65247H25.5717L33.2081 6.45139L39.1921 10.207L44.7504 13.6955L45.3848 14.0961L45.6852 14.2881L47.8551 15.6485L49.8998 16.9338L49.9416 16.9587Z" fill="#C4C4C4"/>
<path d="M45.6852 1.56895V39.0503C45.6852 39.0753 45.6852 39.1087 45.6768 39.1336C45.6601 39.5259 45.4765 39.8682 45.2011 40.1352C44.884 40.4272 44.4499 40.6108 43.9658 40.6108H6.0842C5.60012 40.6108 5.16614 40.4272 4.84895 40.1352C4.54856 39.8515 4.36487 39.4759 4.36487 39.0503V1.56895C4.36487 0.700977 5.14114 0 6.0842 0H43.9659C44.9174 0 45.6852 0.700977 45.6852 1.56895Z" fill="#5EB2B2"/>
<path d="M29.4206 7.33118H10.8163V9.8095H29.4206V7.33118Z" fill="#86CCCA"/>
<path d="M29.4206 6.93982H10.8163V9.41814H29.4206V6.93982Z" fill="#52A6A3"/>
<path d="M39.0879 20.9623H10.8163V23.4406H39.0879V20.9623Z" fill="#86CCCA"/>
<path d="M39.0879 20.5709H10.8163V23.0492H39.0879V20.5709Z" fill="#52A6A3"/>
<path d="M39.0879 27.7777H10.8163V30.256H39.0879V27.7777Z" fill="#86CCCA"/>
<path d="M39.0879 27.3864H10.8163V29.8647H39.0879V27.3864Z" fill="#52A6A3"/>
<path d="M39.0879 14.1467H10.8163V16.625H39.0879V14.1467Z" fill="#86CCCA"/>
<path d="M39.0879 13.7554H10.8163V16.2337H39.0879V13.7554Z" fill="#52A6A3"/>
<path d="M25.0292 31.4554L24.7371 31.6223L24.0277 32.0396L19.0869 34.9273L18.3942 35.3363L10.5909 39.8931L9.35562 40.6108L1.21011 45.368L0.584131 45.7269L0.0583496 46.0356V16.8752L0.100146 16.9002L4.36479 19.3874L6.9771 20.9146L10.8162 23.1597L11.3085 23.4434L18.052 27.3827L18.7281 27.775L21.841 29.5943L22.3 29.8614L22.9677 30.2537L23.8357 30.7543L24.0861 30.9046L24.2196 30.9797L25.0042 31.4387L25.0292 31.4554Z" fill="white"/>
<path d="M49.9973 16.8745V46.0408L49.989 46.0336L49.9472 46.0049L49.9138 45.9834H49.9054L25.7526 31.8844L25.327 31.6333L25.0265 31.454L25.978 30.9019L26.0031 30.8875L26.0281 30.8731L26.9043 30.364L49.9973 16.8745Z" fill="#E3E2E2"/>
<path opacity="0.68" d="M36.8275 11.0603C38.887 11.0603 40.5566 9.39068 40.5566 7.33115C40.5566 5.27163 38.887 3.60205 36.8275 3.60205C34.768 3.60205 33.0984 5.27163 33.0984 7.33115C33.0984 9.39068 34.768 11.0603 36.8275 11.0603Z" fill="#EEF3CA"/>
<path d="M49.9973 41.5256V45.999H49.9472L49.2294 46.0324H2.70139L2.66809 45.3396C3.51106 44.7638 4.62922 43.9876 5.3554 43.4952L5.4554 43.4284L7.89251 41.7509L11.6982 39.122L12.7998 38.3625L24.3589 30.3923L25.135 29.8497C25.3186 29.733 25.5272 29.6327 25.7526 29.5661C26.0197 29.4742 26.3117 29.4158 26.6038 29.3908C26.704 29.3824 26.7957 29.3741 26.8959 29.3824C26.996 29.3657 27.0963 29.3657 27.1964 29.3657C27.4635 29.3574 27.7223 29.3824 27.9726 29.4324C28.2396 29.4825 28.4817 29.5661 28.6987 29.6828L37.4618 34.5568L41.7933 36.9686L42.92 37.5946L47.0011 39.8646L49.6884 41.3586C49.7636 41.4004 49.847 41.4421 49.9305 41.4922C49.9472 41.5006 49.9723 41.5173 49.9973 41.5256Z" fill="#757575"/>
<path d="M50 43.1063V46.0357H0.0583496V43.1063C0.934619 42.5722 2.08638 41.846 2.83755 41.3954L2.93765 41.3287L4.84878 40.1353L5.44966 39.768L9.38052 37.3311L10.5156 36.6216L20.7726 30.2538L20.9813 30.1286L21.407 29.8616L21.841 29.5946L22.4419 29.2191L23.2431 28.7182C23.6604 28.4679 24.2029 28.3427 24.737 28.3343C24.8371 28.3259 24.9289 28.3259 25.0291 28.3343C25.1292 28.3259 25.2293 28.3259 25.3295 28.3343C25.5632 28.3343 25.7885 28.3594 26.0055 28.4095C26.306 28.4679 26.5814 28.5764 26.8151 28.7182L27.9751 29.4361L28.2255 29.5946L28.6595 29.8616L29.0267 30.087L29.2938 30.2539L35.3362 34.0096L39.5424 36.6218L40.6357 37.3062L44.6084 39.7682L45.2009 40.1355L47.2207 41.3957C47.2958 41.4374 47.3709 41.4791 47.4543 41.5293C47.9885 41.8714 48.6729 42.2971 49.3155 42.6893C49.5493 42.8392 49.783 42.9812 50 43.1063Z" fill="#EAEAEA"/>
<path opacity="0.2" d="M45.6852 1.56895V1.98623C45.6852 1.11836 44.9174 0.417285 43.966 0.417285H6.08423C5.14116 0.417285 4.36499 1.11826 4.36499 1.98623V1.56895C4.36489 0.700977 5.14116 0 6.08423 0H43.966C44.9174 0 45.6852 0.700977 45.6852 1.56895Z" fill="#ABDBDF"/>
</svg>
