<svg width="50" height="50" viewBox="0 0 50 50" fill="none" xmlns="http://www.w3.org/2000/svg">
<g clip-path="url(#clip0_402_181)">
<path d="M25 0C11.1928 0 0 11.1928 0 25C0 38.8072 11.1928 50 25 50C38.8072 50 50 38.8072 50 25C50 11.1928 38.8072 0 25 0Z" fill="#40B3E0"/>
<path d="M37.1646 14.381L32.6994 36.8941C32.6994 36.8941 32.075 38.4554 30.3576 37.706L20.0533 29.806L16.3064 27.9951L9.99898 25.8717C9.99898 25.8717 9.03101 25.5283 8.93726 24.7789C8.84371 24.0295 10.0302 23.6236 10.0302 23.6236L35.1037 13.7877C35.1037 13.7877 37.1646 12.8822 37.1646 14.381Z" fill="white"/>
<path d="M19.2613 36.6413C19.2613 36.6413 18.9605 36.6131 18.5857 35.4264C18.2111 34.2399 16.3064 27.995 16.3064 27.995L31.4503 18.3778C31.4503 18.3778 32.3248 17.8469 32.2935 18.3778C32.2935 18.3778 32.4496 18.4713 31.9812 18.9084C31.5128 19.3458 20.0845 29.6186 20.0845 29.6186" fill="#D2E5F1"/>
<path d="M24.0042 32.8351L19.9284 36.5511C19.9284 36.5511 19.6099 36.7929 19.2612 36.6413L20.0417 29.7388" fill="#B5CFE4"/>
</g>
<defs>
<clipPath id="clip0_402_181">
<rect width="50" height="50" fill="white"/>
</clipPath>
</defs>
</svg>
