<svg width="41" height="41" viewBox="0 0 41 41" fill="none" xmlns="http://www.w3.org/2000/svg">
<path d="M20.75 0.75C9.73 0.75 0.75 9.73 0.75 20.75C0.75 31.77 9.73 40.75 20.75 40.75C31.77 40.75 40.75 31.77 40.75 20.75C40.75 9.73 31.77 0.75 20.75 0.75ZM28.75 22.25H22.25V28.75C22.25 29.57 21.57 30.25 20.75 30.25C19.93 30.25 19.25 29.57 19.25 28.75V22.25H12.75C11.93 22.25 11.25 21.57 11.25 20.75C11.25 19.93 11.93 19.25 12.75 19.25H19.25V12.75C19.25 11.93 19.93 11.25 20.75 11.25C21.57 11.25 22.25 11.93 22.25 12.75V19.25H28.75C29.57 19.25 30.25 19.93 30.25 20.75C30.25 21.57 29.57 22.25 28.75 22.25Z" fill="#25D366"/>
</svg>
