<svg width="54" height="50" viewBox="0 0 54 50" fill="none" xmlns="http://www.w3.org/2000/svg">
<path d="M0.968262 15.9805C0.968262 7.64885 7.72237 0.894745 16.054 0.894745H38.6826C47.0142 0.894745 53.7683 7.64885 53.7683 15.9805V34.189C53.7683 42.5206 47.0142 49.2747 38.6825 49.2747H16.054C7.72235 49.2747 0.968262 42.5206 0.968262 34.189V15.9805Z" fill="white"/>
<path d="M2.46826 15.9805C2.46826 8.47728 8.5508 2.39474 16.054 2.39474H38.6826C46.1857 2.39474 52.2683 8.47727 52.2683 15.9805V34.189C52.2683 41.6922 46.1857 47.7747 38.6825 47.7747H16.054C8.55078 47.7747 2.46826 41.6922 2.46826 34.189V15.9805Z" stroke="#25D366" stroke-opacity="0.7" stroke-width="3"/>
<g clip-path="url(#clip0_322_84)">
<g filter="url(#filter0_d_322_84)">
<path d="M36.8463 11.6258C37.3427 11.0411 38.0173 10.7095 38.7227 10.7035C39.428 10.6974 40.1067 11.0174 40.6105 11.5935C41.1143 12.1696 41.4021 12.955 41.4112 13.778C41.4202 14.601 41.1497 15.3947 40.6587 15.9856L26.4528 36.7084C26.2088 37.015 25.9143 37.2611 25.5869 37.4319C25.2596 37.6028 24.9061 37.6949 24.5475 37.7028C24.189 37.7107 23.8327 37.6342 23.5001 37.4779C23.1675 37.3216 22.8652 37.0886 22.6114 36.793L13.1928 25.8068C12.6923 25.2225 12.4112 24.4301 12.4114 23.604C12.4115 22.7778 12.693 21.9856 13.1937 21.4015C13.6945 20.8175 14.3735 20.4895 15.0815 20.4897C15.7895 20.4899 16.4684 20.8183 16.969 21.4026L24.418 30.0968L36.7756 11.7231C36.7981 11.6897 36.8223 11.6579 36.8481 11.6279L36.8463 11.6258Z" fill="white"/>
<path d="M38.0041 12.5843L38.0582 12.5215C38.2828 12.2926 38.5286 12.2052 38.7356 12.2034C38.9634 12.2014 39.2377 12.3023 39.4813 12.5809C39.7313 12.8667 39.9058 13.2997 39.9112 13.7944C39.9167 14.289 39.7516 14.7301 39.5049 15.0271L39.4606 15.0804L39.4215 15.1375L25.2511 35.8085C25.137 35.9433 25.0133 36.0393 24.8929 36.1022C24.7636 36.1696 24.6356 36.2005 24.5145 36.2032C24.3935 36.2058 24.2664 36.1806 24.1381 36.1203C24.0086 36.0595 23.8739 35.9607 23.7496 35.816L14.332 24.831C14.332 24.8309 14.3319 24.8309 14.3319 24.8309C14.3318 24.8307 14.3317 24.8306 14.3316 24.8305C14.0821 24.539 13.9113 24.1007 13.9114 23.6043C13.9115 23.1076 14.0827 22.6692 14.3325 22.3779C14.5761 22.0938 14.8522 21.9897 15.0811 21.9897C15.31 21.9898 15.5862 22.0941 15.8298 22.3784L15.8299 22.3786L23.2789 31.0728L24.562 32.5704L25.6626 30.934L38.0041 12.5843Z" stroke="#25D366" stroke-opacity="0.7" stroke-width="3"/>
</g>
</g>
<defs>
<filter id="filter0_d_322_84" x="12.4114" y="10.7034" width="29" height="30.7714" filterUnits="userSpaceOnUse" color-interpolation-filters="sRGB">
<feFlood flood-opacity="0" result="BackgroundImageFix"/>
<feColorMatrix in="SourceAlpha" type="matrix" values="0 0 0 0 0 0 0 0 0 0 0 0 0 0 0 0 0 0 127 0" result="hardAlpha"/>
<feOffset dy="3.77143"/>
<feColorMatrix type="matrix" values="0 0 0 0 0 0 0 0 0 0 0 0 0 0 0 0 0 0 0.1 0"/>
<feBlend mode="normal" in2="BackgroundImageFix" result="effect1_dropShadow_322_84"/>
<feBlend mode="normal" in="SourceGraphic" in2="effect1_dropShadow_322_84" result="shape"/>
</filter>
<clipPath id="clip0_322_84">
<rect width="31.3291" height="30.4067" fill="white" transform="translate(11.4114 10.7034)"/>
</clipPath>
</defs>
</svg>
