<svg width="31" height="31" viewBox="0 0 31 31" fill="none" xmlns="http://www.w3.org/2000/svg">
<path d="M28.4615 3.88271C27.6404 2.83671 26.6093 1.99548 25.4423 1.4196C24.2753 0.843723 23.0015 0.547546 21.7127 0.552404C19.5076 0.482101 17.3607 1.30435 15.7138 2.84999C14.0669 1.30435 11.92 0.482101 9.71489 0.552404C8.42609 0.547546 7.15232 0.843723 5.98532 1.4196C4.81833 1.99548 3.78717 2.83671 2.96612 3.88271C1.53688 5.70815 0.0416555 9.01319 1.03297 14.3995C2.61519 23.0008 14.4795 30.0594 14.9804 30.3483C15.2037 30.4794 15.4551 30.5482 15.7108 30.5482C15.9665 30.5482 16.2179 30.4794 16.4412 30.3483C16.9451 30.053 28.8094 22.9945 30.3886 14.3995C31.3859 9.01319 29.8907 5.70815 28.4615 3.88271ZM27.4506 13.7994C26.3319 19.8805 18.2003 25.5368 15.7138 27.1443C12.2104 24.9178 5.00275 19.3278 3.98444 13.7994C3.21508 9.62114 4.26788 7.19407 5.2877 5.8929C5.82701 5.20775 6.50364 4.65676 7.26907 4.27946C8.0345 3.90215 8.86974 3.70789 9.71489 3.71059C10.6176 3.63931 11.5224 3.81553 12.3411 4.22207C13.1598 4.62861 13.8646 5.25159 14.3865 6.03028C14.5153 6.27967 14.7051 6.48816 14.9364 6.634C15.1677 6.77984 15.4319 6.8577 15.7014 6.85948C15.971 6.86125 16.2361 6.78687 16.4691 6.64408C16.702 6.5013 16.8944 6.29533 17.0261 6.04765C17.547 5.2629 18.2532 4.63464 19.0751 4.22482C19.8969 3.81501 20.806 3.63777 21.7127 3.71059C22.5596 3.70625 23.3969 3.89973 24.1643 4.27709C24.9316 4.65445 25.61 5.20631 26.1504 5.8929C27.1672 7.19407 28.22 9.62114 27.4506 13.7994Z" fill="#FF0000" fill-opacity="0.6"/>
</svg>
