<svg width="673" height="49" viewBox="0 0 673 49" fill="none" xmlns="http://www.w3.org/2000/svg">
<path fill-rule="evenodd" clip-rule="evenodd" d="M24.1403 48.7909H16.2911L16.9818 37.1277H23.4496L24.1403 48.7909ZM10.6435 38.6833L6.34607 48.7909H0L4.29351 38.6833H10.6435ZM29.7878 38.6833L34.0813 48.7909H40.4314L36.1378 38.6833H29.7878ZM51.0436 32.046H44.7328V39.7124H51.0436V32.046ZM11.7306 36.1185H5.38456L9.94099 25.3926H16.2911L11.7306 36.1185ZM28.6967 36.1185H35.0468L30.4864 25.3926H24.1403L28.6967 36.1185ZM51.0436 30.2151H44.7328V18.0173H51.0436V30.2151ZM11.7306 12.6684H5.38456L9.94099 23.3982H16.2911L11.7306 12.6684ZM28.6967 12.6684H35.0468L30.4864 23.3982H24.1403L28.6967 12.6684ZM51.0436 16.1865V8.5201H44.7328V16.1865H51.0436ZM24.1403 0H16.2911L16.9818 11.6632H23.4496L24.1403 0ZM10.6435 10.1036L6.34607 0H0L4.29351 10.1036H10.6435ZM29.7878 10.1036L34.0813 0H40.4314L36.1378 10.1036H29.7878Z" fill="white" fill-opacity="0.6"/>
<path fill-rule="evenodd" clip-rule="evenodd" d="M79.0971 48.791H71.2479L71.9386 37.1277H78.4064L79.0971 48.791ZM65.6003 38.6833L61.3029 48.791H54.9568L59.2503 38.6833H65.6003ZM84.7446 38.6833L89.0381 48.791H95.3882L91.0946 38.6833H84.7446ZM106 32.046H99.6896V39.7125H106V32.046ZM66.6874 36.1186H60.3413L64.8978 25.3927H71.2479L66.6874 36.1186ZM83.6535 36.1186H90.0036L85.4432 25.3927H79.0971L83.6535 36.1186ZM106 30.2151H99.6896V18.0174H106V30.2151ZM66.6874 12.6685H60.3413L64.8978 23.3983H71.2479L66.6874 12.6685ZM83.6535 12.6685H90.0036L85.4432 23.3983H79.0971L83.6535 12.6685ZM106 16.1866V8.52016H99.6896V16.1866H106ZM79.0971 6.10352e-05H71.2479L71.9386 11.6633H78.4064L79.0971 6.10352e-05ZM65.6003 10.1037L61.3029 6.10352e-05H54.9568L59.2503 10.1037H65.6003ZM84.7446 10.1037L89.0381 6.10352e-05H95.3882L91.0946 10.1037H84.7446Z" fill="white" fill-opacity="0.6"/>
<path fill-rule="evenodd" clip-rule="evenodd" d="M180.169 48.791H172.32L173.011 37.1277H179.479L180.169 48.791ZM166.673 38.6833L162.375 48.791H156.029L160.323 38.6833H166.673ZM185.817 38.6833L190.11 48.791H196.461L192.167 38.6833H185.817ZM207.073 32.046H200.762V39.7125H207.073V32.046ZM167.76 36.1186H161.414L165.97 25.3927H172.32L167.76 36.1186ZM184.726 36.1186H191.076L186.516 25.3927H180.169L184.726 36.1186ZM207.073 30.2151H200.762V18.0174H207.073V30.2151ZM167.76 12.6685H161.414L165.97 23.3983H172.32L167.76 12.6685ZM184.726 12.6685H191.076L186.516 23.3983H180.169L184.726 12.6685ZM207.073 16.1866V8.52016H200.762V16.1866H207.073ZM180.169 6.10352e-05H172.32L173.011 11.6633H179.479L180.169 6.10352e-05ZM166.673 10.1037L162.375 6.10352e-05H156.029L160.323 10.1037H166.673ZM185.817 10.1037L190.11 6.10352e-05H196.461L192.167 10.1037H185.817Z" fill="white" fill-opacity="0.6"/>
<path fill-rule="evenodd" clip-rule="evenodd" d="M282.32 48.791H274.471L275.162 37.1277H281.63L282.32 48.791ZM268.824 38.6833L264.526 48.791H258.18L262.474 38.6833H268.824ZM287.968 38.6833L292.261 48.791H298.612L294.318 38.6833H287.968ZM309.224 32.046H302.913V39.7125H309.224V32.046ZM269.911 36.1186H263.565L268.121 25.3927H274.471L269.911 36.1186ZM286.877 36.1186H293.227L288.667 25.3927H282.32L286.877 36.1186ZM309.224 30.2151H302.913V18.0174H309.224V30.2151ZM269.911 12.6685H263.565L268.121 23.3983H274.471L269.911 12.6685ZM286.877 12.6685H293.227L288.667 23.3983H282.32L286.877 12.6685ZM309.224 16.1866V8.52016H302.913V16.1866H309.224ZM282.32 6.10352e-05H274.471L275.162 11.6633H281.63L282.32 6.10352e-05ZM268.824 10.1037L264.526 6.10352e-05H258.18L262.474 10.1037H268.824ZM287.968 10.1037L292.261 6.10352e-05H298.612L294.318 10.1037H287.968Z" fill="white" fill-opacity="0.6"/>
<path fill-rule="evenodd" clip-rule="evenodd" d="M337.277 48.791H329.428L330.119 37.1277H336.587L337.277 48.791ZM323.78 38.6833L319.483 48.791H313.137L317.43 38.6833H323.78ZM342.925 38.6833L347.218 48.791H353.568L349.275 38.6833H342.925ZM364.181 32.046H357.87V39.7125H364.181V32.046ZM324.868 36.1186H318.522L323.078 25.3927H329.428L324.868 36.1186ZM341.834 36.1186H348.184L343.623 25.3927H337.277L341.834 36.1186ZM364.181 30.2151H357.87V18.0174H364.181V30.2151ZM324.868 12.6685H318.522L323.078 23.3983H329.428L324.868 12.6685ZM341.834 12.6685H348.184L343.623 23.3983H337.277L341.834 12.6685ZM364.181 16.1866V8.52016H357.87V16.1866H364.181ZM337.277 6.10352e-05H329.428L330.119 11.6633H336.587L337.277 6.10352e-05ZM323.78 10.1037L319.483 6.10352e-05H313.137L317.43 10.1037H323.78ZM342.925 10.1037L347.218 6.10352e-05H353.568L349.275 10.1037H342.925Z" fill="white" fill-opacity="0.6"/>
<path fill-rule="evenodd" clip-rule="evenodd" d="M437.346 48.791H429.497L430.187 37.1277H436.655L437.346 48.791ZM423.849 38.6833L419.552 48.791H413.206L417.499 38.6833H423.849ZM442.993 38.6833L447.287 48.791H453.637L449.343 38.6833H442.993ZM464.249 32.046H457.938V39.7125H464.249V32.046ZM424.936 36.1186H418.59L423.147 25.3927H429.497L424.936 36.1186ZM441.902 36.1186H448.252L443.692 25.3927H437.346L441.902 36.1186ZM464.249 30.2151H457.938V18.0174H464.249V30.2151ZM424.936 12.6685H418.59L423.147 23.3983H429.497L424.936 12.6685ZM441.902 12.6685H448.252L443.692 23.3983H437.346L441.902 12.6685ZM464.249 16.1866V8.52016H457.938V16.1866H464.249ZM437.346 6.10352e-05H429.497L430.187 11.6633H436.655L437.346 6.10352e-05ZM423.849 10.1037L419.552 6.10352e-05H413.206L417.499 10.1037H423.849ZM442.993 10.1037L447.287 6.10352e-05H453.637L449.343 10.1037H442.993Z" fill="white" fill-opacity="0.6"/>
<path fill-rule="evenodd" clip-rule="evenodd" d="M492.339 48.791H484.489L485.18 37.1277H491.648L492.339 48.791ZM478.842 38.6833L474.544 48.791H468.198L472.492 38.6833H478.842ZM497.986 38.6833L502.28 48.791H508.63L504.336 38.6833H497.986ZM519.242 32.046H512.931V39.7125H519.242V32.046ZM479.929 36.1186H473.583L478.139 25.3927H484.489L479.929 36.1186ZM496.895 36.1186H503.245L498.685 25.3927H492.339L496.895 36.1186ZM519.242 30.2151H512.931V18.0174H519.242V30.2151ZM479.929 12.6685H473.583L478.139 23.3983H484.489L479.929 12.6685ZM496.895 12.6685H503.245L498.685 23.3983H492.339L496.895 12.6685ZM519.242 16.1866V8.52016H512.931V16.1866H519.242ZM492.339 6.10352e-05H484.489L485.18 11.6633H491.648L492.339 6.10352e-05ZM478.842 10.1037L474.544 6.10352e-05H468.198L472.492 10.1037H478.842ZM497.986 10.1037L502.28 6.10352e-05H508.63L504.336 10.1037H497.986Z" fill="white" fill-opacity="0.6"/>
<path fill-rule="evenodd" clip-rule="evenodd" d="M593.45 48.791H585.601L586.292 37.1277H592.76L593.45 48.791ZM579.954 38.6833L575.656 48.791H569.31L573.604 38.6833H579.954ZM599.098 38.6833L603.391 48.791H609.741L605.448 38.6833H599.098ZM620.354 32.046H614.043V39.7125H620.354V32.046ZM581.041 36.1186H574.695L579.251 25.3927H585.601L581.041 36.1186ZM598.007 36.1186H604.357L599.796 25.3927H593.45L598.007 36.1186ZM620.354 30.2151H614.043V18.0174H620.354V30.2151ZM581.041 12.6685H574.695L579.251 23.3983H585.601L581.041 12.6685ZM598.007 12.6685H604.357L599.796 23.3983H593.45L598.007 12.6685ZM620.354 16.1866V8.52016H614.043V16.1866H620.354ZM593.45 6.10352e-05H585.601L586.292 11.6633H592.76L593.45 6.10352e-05ZM579.954 10.1037L575.656 6.10352e-05H569.31L573.604 10.1037H579.954ZM599.098 10.1037L603.391 6.10352e-05H609.741L605.448 10.1037H599.098Z" fill="white" fill-opacity="0.6"/>
<path fill-rule="evenodd" clip-rule="evenodd" d="M648.367 48.791H640.518L641.209 37.1277H647.677L648.367 48.791ZM634.871 38.6833L630.573 48.791H624.227L628.521 38.6833H634.871ZM654.015 38.6833L658.308 48.791H664.659L660.365 38.6833H654.015ZM675.271 32.046H668.96V39.7125H675.271V32.046ZM635.958 36.1186H629.612L634.168 25.3927H640.518L635.958 36.1186ZM652.924 36.1186H659.274L654.714 25.3927H648.367L652.924 36.1186ZM675.271 30.2151H668.96V18.0174H675.271V30.2151ZM635.958 12.6685H629.612L634.168 23.3983H640.518L635.958 12.6685ZM652.924 12.6685H659.274L654.714 23.3983H648.367L652.924 12.6685ZM675.271 16.1866V8.52016H668.96V16.1866H675.271ZM648.367 6.10352e-05H640.518L641.209 11.6633H647.677L648.367 6.10352e-05ZM634.871 10.1037L630.573 6.10352e-05H624.227L628.521 10.1037H634.871ZM654.015 10.1037L658.308 6.10352e-05H664.659L660.365 10.1037H654.015Z" fill="white" fill-opacity="0.6"/>
</svg>
