<svg width="586" height="50" viewBox="0 0 586 50" fill="none" xmlns="http://www.w3.org/2000/svg">
<path fill-rule="evenodd" clip-rule="evenodd" d="M47.6294 0.795532V12.9074L28.2947 25.0193L8.94666 12.9074V0.795532H47.6294Z" fill="#25D366" fill-opacity="0.7"/>
<path d="M53.7893 0.795532V16.7619L27.8639 32.7283L1.92065 16.7619V0.795532" stroke="#C8C8C8" stroke-width="3.01012" stroke-miterlimit="1.5"/>
<path fill-rule="evenodd" clip-rule="evenodd" d="M73.149 49.2756V37.1637L53.8143 25.0518L34.4663 37.1637V49.2756H73.149Z" fill="#25D366" fill-opacity="0.7"/>
<path d="M79.7226 49.2756V33.035L53.7972 16.7945L27.854 33.035V49.2756" stroke="#C8C8C8" stroke-width="3.01012" stroke-miterlimit="1.5"/>
<path fill-rule="evenodd" clip-rule="evenodd" d="M99.4952 0.795532V12.9074L80.1605 25.0193L60.8125 12.9074V0.795532H99.4952Z" fill="#25D366" fill-opacity="0.7"/>
<path d="M105.655 0.795532V16.7619L79.7301 32.7283L53.7869 16.7619V0.795532" stroke="#C8C8C8" stroke-width="3.01012" stroke-miterlimit="1.5"/>
<path fill-rule="evenodd" clip-rule="evenodd" d="M181.341 49.2756V37.1637L162.006 25.0518L142.658 37.1637V49.2756H181.341Z" fill="#25D366" fill-opacity="0.7"/>
<path d="M131.589 49.2756V33.035L105.663 16.7945L79.72 33.035V49.2756" stroke="#C8C8C8" stroke-width="3.01012" stroke-miterlimit="1.5"/>
<path fill-rule="evenodd" clip-rule="evenodd" d="M207.584 0.795532V12.9074L188.249 25.0193L168.901 12.9074V0.795532H207.584Z" fill="#25D366" fill-opacity="0.7"/>
<path d="M213.744 0.795532V16.7619L187.819 32.7283L161.876 16.7619V0.795532" stroke="#C8C8C8" stroke-width="3.01012" stroke-miterlimit="1.5"/>
<path fill-rule="evenodd" clip-rule="evenodd" d="M233.104 49.2756V37.1637L213.769 25.0518L194.421 37.1637V49.2756H233.104Z" fill="#25D366" fill-opacity="0.7"/>
<path d="M239.677 49.2756V33.035L213.752 16.7945L187.809 33.035V49.2756" stroke="#C8C8C8" stroke-width="3.01012" stroke-miterlimit="1.5"/>
<path fill-rule="evenodd" clip-rule="evenodd" d="M259.45 0.795532V12.9074L240.115 25.0193L220.767 12.9074V0.795532H259.45Z" fill="#25D366" fill-opacity="0.7"/>
<path d="M265.61 0.795532V16.7619L239.685 32.7283L213.741 16.7619V0.795532" stroke="#C8C8C8" stroke-width="3.01012" stroke-miterlimit="1.5"/>
<path fill-rule="evenodd" clip-rule="evenodd" d="M284.97 49.2756V37.1637L265.635 25.0518L246.287 37.1637V49.2756H284.97Z" fill="#25D366" fill-opacity="0.7"/>
<path d="M291.544 49.2756V33.035L265.618 16.7945L239.675 33.035V49.2756" stroke="#C8C8C8" stroke-width="3.01012" stroke-miterlimit="1.5"/>
<path fill-rule="evenodd" clip-rule="evenodd" d="M368.444 0.795532V12.9074L349.109 25.0193L329.761 12.9074V0.795532H368.444Z" fill="#25D366" fill-opacity="0.7"/>
<path d="M374.605 0.795532V16.7619L348.679 32.7283L322.736 16.7619V0.795532" stroke="#C8C8C8" stroke-width="3.01012" stroke-miterlimit="1.5"/>
<path fill-rule="evenodd" clip-rule="evenodd" d="M393.964 49.2756V37.1637L374.629 25.0518L355.281 37.1637V49.2756H393.964Z" fill="#25D366" fill-opacity="0.7"/>
<path d="M400.537 49.2756V33.035L374.612 16.7945L348.669 33.035V49.2756" stroke="#C8C8C8" stroke-width="3.01012" stroke-miterlimit="1.5"/>
<path fill-rule="evenodd" clip-rule="evenodd" d="M420.31 0.795532V12.9074L400.975 25.0193L381.627 12.9074V0.795532H420.31Z" fill="#25D366" fill-opacity="0.7"/>
<path d="M426.47 0.795532V16.7619L400.545 32.7283L374.602 16.7619V0.795532" stroke="#C8C8C8" stroke-width="3.01012" stroke-miterlimit="1.5"/>
<path fill-rule="evenodd" clip-rule="evenodd" d="M445.83 49.2756V37.1637L426.495 25.0518L407.147 37.1637V49.2756H445.83Z" fill="#25D366" fill-opacity="0.7"/>
<path d="M452.404 49.2756V33.035L426.478 16.7945L400.535 33.035V49.2756" stroke="#C8C8C8" stroke-width="3.01012" stroke-miterlimit="1.5"/>
<path fill-rule="evenodd" clip-rule="evenodd" d="M527.175 0.795532V12.9074L507.84 25.0193L488.492 12.9074V0.795532H527.175Z" fill="#25D366" fill-opacity="0.7"/>
<path d="M533.335 0.795532V16.7619L507.409 32.7283L481.466 16.7619V0.795532" stroke="#C8C8C8" stroke-width="3.01012" stroke-miterlimit="1.5"/>
<path fill-rule="evenodd" clip-rule="evenodd" d="M552.694 49.2756V37.1637L533.359 25.0518L514.011 37.1637V49.2756H552.694Z" fill="#25D366" fill-opacity="0.7"/>
<path d="M559.268 49.2756V33.035L533.342 16.7945L507.399 33.035V49.2756" stroke="#C8C8C8" stroke-width="3.01012" stroke-miterlimit="1.5"/>
<path fill-rule="evenodd" clip-rule="evenodd" d="M579.04 0.795532V12.9074L559.705 25.0193L540.357 12.9074V0.795532H579.04Z" fill="#25D366" fill-opacity="0.7"/>
<path d="M585.2 0.795532V16.7619L559.275 32.7283L533.332 16.7619V0.795532" stroke="#C8C8C8" stroke-width="3.01012" stroke-miterlimit="1.5"/>
<path fill-rule="evenodd" clip-rule="evenodd" d="M586 49.2756V37.1637V24.4207L565.877 37.1637V49.2756H586Z" fill="#25D366" fill-opacity="0.7"/>
<path d="M585.208 16.7945L559.265 33.035V49.2756" stroke="#C8C8C8" stroke-width="3.01012" stroke-miterlimit="1.5"/>
</svg>
