<svg width="46" height="38" viewBox="0 0 46 38" fill="none" xmlns="http://www.w3.org/2000/svg">
<path d="M44.1417 21.8314V29.2681C44.1417 32.4907 36.3728 36.7049 26.7892 36.7049C17.2057 36.7049 9.43677 32.4907 9.43677 29.2681V23.0708" stroke="#F9F9F9" stroke-width="2.00675" stroke-linecap="round" stroke-linejoin="round"/>
<path d="M10.1656 23.7128C12.3099 26.5586 18.941 29.2284 26.7893 29.2284C36.3728 29.2284 44.1418 25.2472 44.1418 21.8263C44.1418 19.9052 41.6951 17.8006 37.8552 16.3231" stroke="#F9F9F9" stroke-width="2.00675" stroke-linecap="round" stroke-linejoin="round"/>
<path d="M36.7049 9.43677V16.8735C36.7049 20.0961 28.936 24.3103 19.3525 24.3103C9.76895 24.3103 2 20.0961 2 16.8735V9.43677" stroke="#F9F9F9" stroke-width="2.00675" stroke-linecap="round" stroke-linejoin="round"/>
<path fill-rule="evenodd" clip-rule="evenodd" d="M19.3525 16.8339C28.936 16.8339 36.7049 12.8527 36.7049 9.43181C36.7049 6.00842 28.936 2 19.3525 2C9.76895 2 2 6.00842 2 9.43181C2 12.8527 9.76895 16.8339 19.3525 16.8339Z" stroke="#F9F9F9" stroke-width="2.00675" stroke-linecap="round" stroke-linejoin="round"/>
</svg>
