<svg width="43" height="43" viewBox="0 0 43 43" fill="none" xmlns="http://www.w3.org/2000/svg">
<path d="M24.7085 2.05526C24.3513 1.43085 23.8354 0.911914 23.2131 0.550998C22.5908 0.190081 21.8843 0 21.1649 0C20.4455 0 19.7389 0.190081 19.1167 0.550998C18.4944 0.911914 17.9785 1.43085 17.6213 2.05526L12.9836 10.1657C12.8043 10.4794 12.7568 10.8514 12.8518 11.2C12.9467 11.5486 13.1762 11.8453 13.4899 12.0246C13.8035 12.204 14.1755 12.2514 14.5241 12.1565C14.8728 12.0616 15.1694 11.832 15.3487 11.5184L19.9837 3.40519C20.1028 3.19706 20.2747 3.02408 20.4821 2.90377C20.6896 2.78347 20.9251 2.72011 21.1649 2.72011C21.4047 2.72011 21.6402 2.78347 21.8476 2.90377C22.0551 3.02408 22.227 3.19706 22.3461 3.40519L29.259 15.5002L25.8407 14.583C25.492 14.4891 25.1204 14.5376 24.8075 14.7178C24.4946 14.898 24.2661 15.1951 24.1723 15.5437C24.0785 15.8924 24.127 16.264 24.3071 16.5769C24.4873 16.8897 24.7844 17.1182 25.133 17.2121L31.7058 18.973C31.8784 19.0195 32.0585 19.0316 32.2358 19.0085C32.4131 18.9854 32.5841 18.9275 32.7391 18.8383C32.894 18.7491 33.0298 18.6302 33.1388 18.4885C33.2478 18.3467 33.3278 18.1849 33.3742 18.0122L35.1351 11.4395C35.1814 11.2668 35.1932 11.0868 35.1699 10.9096C35.1466 10.7324 35.0886 10.5615 34.9993 10.4067C34.9099 10.2519 34.791 10.1162 34.6492 10.0074C34.5074 9.89859 34.3456 9.81876 34.173 9.77247C34.0003 9.72619 33.8203 9.71436 33.6431 9.73766C33.4659 9.76096 33.295 9.81893 33.1402 9.90827C32.9854 9.99761 32.8497 10.1166 32.7409 10.2583C32.6321 10.4001 32.5522 10.5619 32.506 10.7346L31.5997 14.1148L24.7085 2.05526ZM7.4832 19.7922L4.06754 20.7094C3.7189 20.8032 3.34726 20.7547 3.03438 20.5745C2.7215 20.3944 2.49301 20.0973 2.39917 19.7486C2.30533 19.4 2.35384 19.0284 2.53401 18.7155C2.71418 18.4026 3.01127 18.1741 3.35991 18.0803L9.9354 16.3194C10.2837 16.2262 10.6547 16.2751 10.967 16.4552C11.2792 16.6353 11.5073 16.932 11.601 17.2801L13.3619 23.8529C13.4554 24.2015 13.4066 24.573 13.2261 24.8856C13.0457 25.1983 12.7485 25.4264 12.3998 25.5199C12.0512 25.6134 11.6797 25.5645 11.3671 25.3841C11.0545 25.2037 10.8263 24.9064 10.7328 24.5578L9.82653 21.1775L2.89995 33.2997C2.78175 33.5066 2.71997 33.741 2.72077 33.9793C2.72158 34.2176 2.78495 34.4515 2.90454 34.6576C3.02414 34.8637 3.19576 35.0348 3.40225 35.1538C3.60873 35.2728 3.84284 35.3354 4.08115 35.3355H13C13.3609 35.3355 13.707 35.4789 13.9622 35.7341C14.2174 35.9893 14.3608 36.3354 14.3608 36.6963C14.3608 37.0572 14.2174 37.4033 13.9622 37.6586C13.707 37.9138 13.3609 38.0571 13 38.0571H4.08115C3.36623 38.0569 2.66391 37.8689 2.04445 37.512C1.42499 37.1551 0.910117 36.6418 0.551333 36.0235C0.192549 35.4051 0.00243888 34.7034 2.33103e-05 33.9885C-0.00239226 33.2736 0.182971 32.5705 0.537569 31.9498L7.4832 19.7922ZM37.1219 23.774C37.0356 23.6144 36.9183 23.4736 36.7769 23.36C36.6354 23.2464 36.4727 23.1622 36.2983 23.1124C36.1238 23.0626 35.9412 23.0482 35.7611 23.07C35.581 23.0918 35.4071 23.1494 35.2495 23.2394C35.092 23.3294 34.9541 23.45 34.8439 23.5941C34.7337 23.7382 34.6533 23.9029 34.6077 24.0785C34.562 24.254 34.5519 24.437 34.578 24.6165C34.6041 24.796 34.6658 24.9686 34.7595 25.1239L39.4298 33.2997C39.548 33.5066 39.6098 33.741 39.609 33.9793C39.6082 34.2176 39.5448 34.4515 39.4252 34.6576C39.3056 34.8637 39.134 35.0348 38.9275 35.1538C38.721 35.2728 38.4869 35.3354 38.2486 35.3355H23.0891L24.85 33.5773C25.1052 33.3218 25.2484 32.9754 25.2481 32.6142C25.2479 32.2531 25.1042 31.9069 24.8486 31.6517C24.7221 31.5254 24.5719 31.4252 24.4067 31.3569C24.2414 31.2886 24.0644 31.2535 23.8856 31.2536C23.5245 31.2539 23.1782 31.3976 22.9231 31.6531L18.8406 35.7356C18.7136 35.8616 18.6129 36.0114 18.5441 36.1766C18.4753 36.3417 18.4399 36.5188 18.4399 36.6977C18.4399 36.8765 18.4753 37.0536 18.5441 37.2188C18.6129 37.3839 18.7136 37.5338 18.8406 37.6598L22.9231 41.7422C23.1782 41.9978 23.5245 42.1415 23.8856 42.1417C24.0644 42.1418 24.2414 42.1067 24.4067 42.0384C24.5719 41.9701 24.7221 41.8699 24.8486 41.7436C24.9752 41.6172 25.0756 41.4672 25.1441 41.3021C25.2126 41.1369 25.248 40.9599 25.2481 40.7811C25.2482 40.6023 25.2131 40.4252 25.1448 40.26C25.0765 40.0947 24.9763 39.9446 24.85 39.818L23.0891 38.0571H38.2486C38.9635 38.0569 39.6659 37.8689 40.2853 37.512C40.9048 37.1551 41.4197 36.6418 41.7784 36.0235C42.1372 35.4051 42.3273 34.7034 42.3298 33.9885C42.3322 33.2736 42.1468 32.5705 41.7922 31.9498L37.1219 23.774Z" fill="#F9F9F9"/>
</svg>
