<svg width="43" height="43" viewBox="0 0 43 43" fill="none" xmlns="http://www.w3.org/2000/svg">
<path d="M14.5211 0C14.1709 0 13.8352 0.139084 13.5876 0.386656C13.34 0.634228 13.2009 0.970008 13.2009 1.32013V7.8178H6.6003C6.25018 7.8178 5.9144 7.95688 5.66683 8.20445C5.41926 8.45203 5.28017 8.78781 5.28017 9.13793V19.8653L0.965992 21.0666C0.780878 21.1182 0.609255 21.2095 0.463112 21.3343C0.316969 21.4591 0.199829 21.6143 0.119875 21.789C0.0399207 21.9638 -0.000919712 22.1539 0.00020575 22.346C0.00133121 22.5382 0.0443958 22.7278 0.126391 22.9016L4.88413 33.0111C5.46511 32.3103 6.26977 31.8311 7.16267 31.654L3.17853 23.192L19.696 18.5874C20.6235 18.3289 21.6041 18.3289 22.5316 18.5874L39.0517 23.1867L34.9857 31.6355C35.8802 31.7842 36.6966 32.2352 37.2986 32.9134L42.117 22.9121C42.201 22.738 42.2456 22.5476 42.2479 22.3543C42.2502 22.1611 42.21 21.9697 42.1301 21.7936C42.0503 21.6176 41.9328 21.4613 41.7859 21.3356C41.639 21.21 41.4663 21.1182 41.2801 21.0666L36.9632 19.8653V9.13793C36.9632 8.78781 36.8242 8.45203 36.5766 8.20445C36.329 7.95688 35.9932 7.8178 35.6431 7.8178H29.0425V1.32277C29.0425 0.972648 28.9034 0.636869 28.6558 0.389297C28.4082 0.141725 28.0725 0.00264006 27.7223 0.00264006H14.5211V0ZM26.4022 7.8178H15.8412V2.6429H26.4022V7.8178ZM34.323 10.4581V19.1313L23.2366 16.0422C21.8461 15.6549 20.3762 15.6549 18.9857 16.0422L7.92043 19.1287V10.4581H34.323Z" fill="#F9F9F9"/>
<path d="M35.6117 35.2501L35.6038 35.2237C35.5359 34.9506 35.3825 34.7063 35.166 34.5265C34.9494 34.3467 34.6811 34.2409 34.4001 34.2243C34.1192 34.2078 33.8403 34.2816 33.6042 34.4347C33.368 34.5879 33.1871 34.8126 33.0877 35.0759L33.0745 35.1049C33.0639 35.1313 33.0481 35.1789 33.0216 35.2369C32.6853 35.9938 32.2522 36.7038 31.7332 37.3491C30.788 38.5109 29.4758 39.501 27.7227 39.501C25.9695 39.501 24.6547 38.5082 23.7042 37.3465C23.1533 36.6636 22.6985 35.9085 22.3524 35.1023L22.3392 35.0706C22.2431 34.8205 22.0732 34.6056 21.8521 34.4544C21.631 34.3032 21.3691 34.2228 21.1012 34.2239C20.8333 34.2251 20.5721 34.3077 20.3523 34.4608C20.1325 34.6139 19.9645 34.8303 19.8705 35.0812L19.8573 35.1076C19.8468 35.134 19.8309 35.1815 19.8045 35.2396C19.4702 35.9955 19.0388 36.7046 18.5214 37.3491C17.5814 38.5109 16.2745 39.501 14.5214 39.501C12.7682 39.501 11.4587 38.5109 10.5135 37.3491C9.96398 36.6663 9.5109 35.9111 9.16694 35.1049L9.15638 35.0785V35.0732C9.0572 34.8099 8.87646 34.5851 8.64053 34.4317C8.4046 34.2783 8.12584 34.2044 7.8449 34.2206C7.56396 34.2368 7.29555 34.3424 7.07883 34.5219C6.86212 34.7014 6.70844 34.9454 6.64021 35.2185L6.63493 35.2396L6.59797 35.3637C6.3569 36.0905 6.00127 36.7741 5.54451 37.3888C4.73395 38.4686 3.44286 39.501 1.3201 39.501C0.969978 39.501 0.634198 39.64 0.386626 39.8876C0.139054 40.1352 -3.05176e-05 40.471 -3.05176e-05 40.8211C-3.05176e-05 41.1712 0.139054 41.507 0.386626 41.7546C0.634198 42.0021 0.969978 42.1412 1.3201 42.1412C4.47784 42.1412 6.48708 40.5333 7.65671 38.9729C7.78872 38.7934 7.91546 38.6165 8.02635 38.4396C8.161 38.6297 8.30621 38.8198 8.46463 39.0125C9.66331 40.4911 11.6541 42.1412 14.5214 42.1412C17.3887 42.1412 19.3742 40.4911 20.5728 39.0125C20.7709 38.767 20.9504 38.5241 21.1115 38.2864C21.2778 38.5241 21.46 38.7696 21.658 39.0151C22.8646 40.4937 24.8553 42.1412 27.7227 42.1412C30.59 42.1412 32.5807 40.4911 33.7794 39.0125C33.9325 38.8277 34.0751 38.6376 34.2071 38.4528C34.3207 38.6323 34.4447 38.8118 34.5768 38.9914C35.749 40.565 37.7635 42.1782 40.9398 42.1412C41.1131 42.1391 41.2844 42.1029 41.4438 42.0347C41.6031 41.9664 41.7475 41.8674 41.8686 41.7433C41.9897 41.6193 42.0852 41.4726 42.1496 41.3116C42.2141 41.1507 42.2461 40.9786 42.2441 40.8052C42.242 40.6319 42.2058 40.4606 42.1375 40.3013C42.0693 40.1419 41.9703 39.9975 41.8462 39.8764C41.7221 39.7553 41.5755 39.6598 41.4145 39.5954C41.2535 39.531 41.0815 39.4989 40.9081 39.501C38.788 39.5274 37.5022 38.4977 36.6969 37.4151C36.2403 36.7955 35.8863 36.1064 35.6487 35.3742L35.6117 35.2475V35.2501Z" fill="#F9F9F9"/>
</svg>
